<svg xmlns="http://www.w3.org/2000/svg" width="366.6" height="97.8"><defs><linearGradient id="a" x1="-458.3" x2="-457.3" y1="405" y2="405" gradientUnits="userSpaceOnUse" gradientTransform="matrix(-73.0026,-32.5029,-32.5029,73.0026,-20215.613,-44389.57)"><stop stop-color="#672C1F" offset="0"/><stop stop-color="#EC9236" offset=".4"/><stop stop-color="#EFC25E" offset=".7"/><stop stop-color="#EFC25E" offset="1"/></linearGradient><linearGradient id="b" x1="-458.4" x2="-457.4" y1="402.9" y2="402.9" gradientUnits="userSpaceOnUse" gradientTransform="matrix(-50.3674,-66.8397,-66.8397,50.3674,3931.7344,-50851.469)"><stop stop-color="#661927" offset="0"/><stop stop-color="#D12241" offset=".4"/><stop stop-color="#E42E59" offset=".6"/><stop stop-color="#E42E59" offset="1"/></linearGradient></defs><g fill="#fff" style="-inkscape-font-specification:WorkSans-SemiBold" font-weight="600" font-size="71.6" font-family="Work Sans"><path d="M132.6 32h-9v38c0 7 2.8 9.8 9.2 9.8 2.2 0 4.6-.5 6-1.4l1-6.2c-1.6.5-2.5.7-4 .7-2.4 0-3.2-1.2-3.2-4.3V32zM165.5 46.4V64c0 6-3.4 8.7-7.7 8.7-3.5 0-5.7-1.6-5.7-7V46.5h-9V68c0 8.5 5 11.8 11.7 11.8 5.2 0 9.3-2 11.5-6.3l.3 5.7h8V46.4h-9zM204 46.4L196 73l-8.2-26.6h-9.6l12.4 32.8H201l12.4-32.8H204zM231.7 45.7c-10.5 0-16.7 6.4-16.7 17 0 10.8 6.2 17 16.7 17 10.6 0 16.8-6.2 16.8-17 0-10.6-6.2-17-16.8-17zm0 6.7c5 0 7.8 3.4 7.8 10.4S236.8 73 231.7 73c-5 0-7.8-3.3-7.8-10.2 0-7 2.7-10.4 7.7-10.4zM275.7 71.2c-1.4 1-3 1.8-5 1.8-3 0-4.6-1.4-4.6-4.5V53h10.7v-6.6H266v-10l-9 2.4v7.6h-5.8V53h6v17c0 7 4.4 9.8 11 9.8 3.3 0 6.8-1 9-2.7l-1.5-5.8zM312 62.6c0-10.7-5.6-17-15.8-17-10.5 0-16.5 6.4-16.5 17.2 0 10.7 6.2 17 17 17 7.4 0 12.5-2.8 14.6-8L304 69c-1 2.7-3.5 4-7.3 4-4.4 0-7.2-2-8.2-6.8h23.2c.2-1 .3-2.6.3-3.6zm-16-10.3c4.3 0 7 2.7 7.7 7.6h-15.2c.7-5 3.3-7.7 7.6-7.7zM327 32h-8.8v38c0 7 2.8 9.8 9 9.8 2.3 0 4.8-.5 6.2-1.4l.8-6.2c-1.4.5-2.3.7-4 .7-2.3 0-3-1.2-3-4.3V32zM350.6 79.8c9.8 0 15-4.2 15-10 0-5.6-3.6-8.5-13.2-10.4-5.5-1-7-2.2-7-4 0-1.7 2-3 5.8-3 4.4 0 7 1.7 8.6 5.3l6-5c-3-4.7-7.2-7-14.7-7-9.6 0-14.7 5.3-14.7 10.6 0 5.4 3.4 8.6 13.6 10.6 4.7 1 6.5 1.8 6.5 3.3 0 1.8-2.2 3-6 3-4.5 0-8-1.2-10-5.2l-5 5.5c3 4.5 8.3 6.3 15 6.3z"/></g><path fill="url(#a)" d="M58 51h-.6c-1.2-.4-6.3-5-12.3-12.2-6-7.3 1-11.2 1.4-11.6C25.8 9.5-11.2 33 3.4 61c14.3 27.4 47.4 44 61.2 33.7-15-10.5-4.4-25-6.4-43.7zm-24 8.4c-6 3.2-13.6 1-16.8-5.3-3.2-6-1-13.5 5.3-16.7 6-3.2 13.7-.8 17 5.3 3 6.2.7 13.7-5.4 17z" transform="translate(0.00728665,0)"/><path fill="url(#b)" d="M32.3 32.3c0 8.8 2.2 16 5.3 22l1 1.8c3.6 7 8.2 12.4 11.6 17.7 1.8 2.7 3.3 7 3.8 11.3.2 1.7.2 3.4 0 5v.3c-.3 1.8-1 3.4-2 4.6-1.6 1.5-4.2 2-8 1 6 2.3 12 2.2 17.6.3 6.6-2.2 12.6-7 17.7-13.4 4-5 7.4-11 10-17.4 4.2-9.6 6.8-20.5 7.3-31v-4c0-4-.5-7.3-1.5-10.4C92.8 12.5 87.4 7 81 3.6c-1.6-.8-3.2-1.4-5-2-2.2-.7-4.5-1.2-7-1.4-.5 0-1 0-1.7-.2h-2.7c-16 .3-32 11-32 32.3zM79 31c0 8-6.6 14.3-14.5 14.3C56.5 45.3 50 39 50 31s6.6-14.4 14.5-14.4C72.5 16.6 79 23 79 31z" transform="translate(0.00728665,0)"/></svg>